<?xml version="1.0" encoding="UTF-8" standalone="no"?>
<!-- Generator: Adobe Illustrator 15.0.0, SVG Export Plug-In . SVG Version: 6.00 Build 0)  -->

<svg
   xmlns:dc="http://purl.org/dc/elements/1.1/"
   xmlns:cc="http://creativecommons.org/ns#"
   xmlns:rdf="http://www.w3.org/1999/02/22-rdf-syntax-ns#"
   xmlns:svg="http://www.w3.org/2000/svg"
   xmlns="http://www.w3.org/2000/svg"
   xmlns:sodipodi="http://sodipodi.sourceforge.net/DTD/sodipodi-0.dtd"
   xmlns:inkscape="http://www.inkscape.org/namespaces/inkscape"
   version="1.1"
   id="Warstwa_1"
   x="0px"
   y="0px"
   width="425.19699"
   height="241.435"
   viewBox="0 0 425.19699 241.435"
   enable-background="new 0 0 595 842"
   xml:space="preserve"
   sodipodi:docname="PW07-wersja-monochromatyczna.svg"
   inkscape:version="0.92.3 (2405546, 2018-03-11)"><metadata
   id="metadata25"><rdf:RDF><cc:Work
       rdf:about=""><dc:format>image/svg+xml</dc:format><dc:type
         rdf:resource="http://purl.org/dc/dcmitype/StillImage" /><dc:title></dc:title></cc:Work></rdf:RDF></metadata><defs
   id="defs23" /><sodipodi:namedview
   pagecolor="#ffffff"
   bordercolor="#666666"
   borderopacity="1"
   objecttolerance="10"
   gridtolerance="10"
   guidetolerance="10"
   inkscape:pageopacity="0"
   inkscape:pageshadow="2"
   inkscape:window-width="1366"
   inkscape:window-height="715"
   id="namedview21"
   showgrid="false"
   fit-margin-top="0"
   fit-margin-left="0"
   fit-margin-right="0"
   fit-margin-bottom="0"
   inkscape:zoom="0.6196927"
   inkscape:cx="212.46"
   inkscape:cy="1.414"
   inkscape:window-x="-8"
   inkscape:window-y="-8"
   inkscape:window-maximized="1"
   inkscape:current-layer="Warstwa_1" />
<g
   id="g18"
   transform="translate(-85.04,-180.979)">
	<polygon
   points="418.861,316.713 419.993,319.8 427.083,339.111 434.173,358.425 434.766,360.049 433.036,360.049 428.196,360.049 427.354,360.049 427.064,359.255 423.472,349.46 418.861,336.905 414.251,349.46 410.658,359.255 410.368,360.049 409.526,360.049 404.682,360.049 402.957,360.049 403.55,358.425 410.64,339.111 417.725,319.8 "
   id="polygon2"
   style="clip-rule:evenodd;fill-rule:evenodd" />
	<polygon
   points="296.693,360.362 295.557,357.271 288.412,337.802 281.268,318.337 280.671,316.713 282.404,316.713 287.28,316.713 288.125,316.713 288.417,317.506 292.04,327.377 296.691,340.054 301.345,327.377 304.968,317.506 305.26,316.713 306.102,316.713 310.98,316.713 311.825,316.713 312.115,317.506 315.738,327.377 320.392,340.054 325.043,327.377 328.666,317.506 328.958,316.713 329.803,316.713 334.68,316.713 336.412,316.713 335.815,318.337 328.671,337.802 321.526,357.271 320.392,360.362 319.258,357.271 312.11,337.802 308.543,328.076 304.973,337.802 297.828,357.271 "
   id="polygon4"
   style="clip-rule:evenodd;fill-rule:evenodd" />
	<path
   d="m 365.665,329.222 c 0,-3.55 1.364,-6.529 4.088,-8.946 1.351,-1.196 2.931,-2.096 4.732,-2.689 1.769,-0.582 3.754,-0.874 5.948,-0.874 1.9,0 3.65,0.207 5.245,0.623 1.624,0.423 3.073,1.061 4.346,1.909 h 0.004 c 1.293,0.86 2.355,1.917 3.193,3.161 0.823,1.23 1.417,2.638 1.767,4.223 l 0.308,1.378 -1.407,0.152 -4.937,0.536 -1.028,0.11 -0.313,-0.987 c -0.368,-1.162 -1.215,-2.073 -2.533,-2.726 -0.731,-0.361 -1.488,-0.635 -2.264,-0.816 -0.769,-0.18 -1.564,-0.271 -2.381,-0.271 -1.205,0 -2.271,0.145 -3.192,0.433 -0.886,0.276 -1.654,0.685 -2.296,1.228 -0.646,0.55 -1.125,1.125 -1.431,1.721 -0.293,0.566 -0.438,1.18 -0.438,1.836 l -0.005,0.069 c -0.046,0.851 0.071,1.562 0.356,2.132 h 0.005 c 0.271,0.545 0.713,0.994 1.318,1.339 0.757,0.43 1.645,0.803 2.657,1.109 1.037,0.315 2.224,0.57 3.559,0.759 l 0.05,0.009 c 1.892,0.35 3.655,0.805 5.284,1.36 1.647,0.563 3.18,1.237 4.59,2.02 1.557,0.867 2.748,2.082 3.572,3.646 0.801,1.509 1.242,3.333 1.329,5.468 l 0.005,0.048 c 0,2.045 -0.341,3.871 -1.012,5.472 -0.686,1.626 -1.717,3.007 -3.083,4.127 -1.348,1.104 -2.977,1.93 -4.888,2.473 v 0 c -1.859,0.529 -3.989,0.796 -6.382,0.796 -4.674,0 -8.193,-0.867 -10.561,-2.597 -1.203,-0.879 -2.19,-1.939 -2.959,-3.17 -0.761,-1.219 -1.306,-2.609 -1.635,-4.166 l -0.285,-1.346 1.368,-0.168 4.877,-0.596 1.047,-0.129 0.314,1.005 c 0.198,0.625 0.47,1.171 0.811,1.635 l 0.004,0.005 c 0.339,0.458 0.762,0.858 1.268,1.194 v 0.004 c 0.483,0.32 1.181,0.571 2.087,0.746 0.989,0.191 2.213,0.288 3.664,0.288 l 0.039,0.004 c 1.144,0.037 2.213,-0.058 3.207,-0.276 0.971,-0.214 1.877,-0.557 2.712,-1.024 0.723,-0.402 1.261,-0.941 1.612,-1.61 v -0.007 c 0.373,-0.706 0.557,-1.596 0.557,-2.661 0,-1.086 -0.74,-2.062 -2.217,-2.931 -1.763,-1.035 -4.47,-1.873 -8.121,-2.51 -4.051,-0.708 -7.131,-2.096 -9.238,-4.162 -2.164,-2.119 -3.271,-4.902 -3.314,-8.343 z"
   id="path6"
   inkscape:connector-curvature="0" />
	<polygon
   points="473.366,316.713 473.366,317.98 473.366,322.792 473.366,324.058 472.097,324.058 461.367,324.058 461.367,358.779 461.367,360.049 460.098,360.049 455.166,360.049 453.9,360.049 453.9,358.779 453.9,324.058 443.172,324.058 441.901,324.058 441.901,322.792 441.901,317.98 441.901,316.713 443.172,316.713 472.097,316.713 "
   id="polygon8" />
	<path
   d="m 247.213,316.717 3.657,0.002 v -0.007 h 1.268 6.482 c 2.301,0 4.373,0.37 6.218,1.111 1.868,0.75 3.489,1.877 4.858,3.377 1.353,1.481 2.365,3.145 3.042,4.987 0.671,1.835 1.01,3.837 1.01,6.004 0,2.107 -0.338,4.067 -1.015,5.884 -0.676,1.815 -1.686,3.469 -3.037,4.957 -1.371,1.516 -2.99,2.65 -4.854,3.402 h -0.004 c -1.845,0.746 -3.917,1.123 -6.218,1.123 h -5.206 v 11.221 1.27 h -1.268 -4.934 -1.27 v -1.27 -40.798 -1.263 z m 6.202,7.347 v 16.14 h 5.385 c 1.242,0 2.337,-0.198 3.278,-0.594 0.914,-0.382 1.702,-0.959 2.363,-1.728 0.692,-0.805 1.212,-1.675 1.555,-2.608 0.343,-0.932 0.518,-1.939 0.518,-3.023 0,-1.141 -0.175,-2.199 -0.522,-3.172 -0.345,-0.969 -0.865,-1.861 -1.555,-2.671 v 0 c -0.667,-0.782 -1.456,-1.367 -2.367,-1.75 -0.934,-0.396 -2.024,-0.594 -3.269,-0.594 z"
   id="path10"
   inkscape:connector-curvature="0" />
	<path
   d="m 510.236,364.917 v 4.863 1.258 h -1.261 -27.218 -1.215 l -0.041,-1.219 c -0.019,-0.692 0.022,-1.371 0.134,-2.031 0.11,-0.663 0.285,-1.316 0.528,-1.953 v 0 c 0.363,-0.987 0.852,-1.98 1.459,-2.977 0.593,-0.982 1.293,-1.941 2.089,-2.882 l 0.004,-0.004 c 0.801,-0.934 1.767,-1.939 2.908,-3.011 1.104,-1.04 2.393,-2.165 3.864,-3.375 2.204,-1.806 4.054,-3.43 5.553,-4.87 1.464,-1.403 2.567,-2.613 3.313,-3.628 0.718,-0.98 1.257,-1.927 1.61,-2.834 0.336,-0.862 0.502,-1.698 0.502,-2.502 0,-0.837 -0.147,-1.597 -0.438,-2.28 v -0.005 c -0.285,-0.678 -0.727,-1.309 -1.32,-1.879 -0.589,-0.563 -1.274,-0.991 -2.047,-1.274 -0.792,-0.292 -1.693,-0.439 -2.696,-0.439 -1.072,0 -2.02,0.156 -2.843,0.464 v 0.002 c -0.806,0.299 -1.51,0.752 -2.107,1.357 l -0.005,0.004 c -0.598,0.593 -1.049,1.313 -1.357,2.148 -0.321,0.881 -0.487,1.891 -0.496,3.027 l -0.01,1.38 -1.366,-0.138 -5.194,-0.527 -1.237,-0.126 0.11,-1.235 c 0.188,-2.086 0.648,-3.931 1.371,-5.528 0.745,-1.642 1.767,-3.032 3.068,-4.17 1.288,-1.129 2.797,-1.976 4.518,-2.537 1.693,-0.55 3.584,-0.828 5.664,-0.828 2.107,0 4.017,0.301 5.714,0.897 1.739,0.609 3.248,1.525 4.527,2.742 1.283,1.217 2.245,2.583 2.889,4.102 0.645,1.518 0.967,3.172 0.967,4.957 0,0.899 -0.092,1.804 -0.281,2.708 -0.184,0.893 -0.464,1.773 -0.837,2.643 v 0 c -0.368,0.87 -0.855,1.758 -1.454,2.657 -0.598,0.895 -1.307,1.801 -2.121,2.712 v -0.002 c -0.818,0.923 -1.886,1.999 -3.206,3.225 -1.312,1.219 -2.885,2.606 -4.716,4.15 h -0.005 c -1.426,1.203 -2.664,2.264 -3.699,3.188 h -0.004 c -0.938,0.831 -1.615,1.465 -2.029,1.905 l -0.005,0.004 c -0.197,0.203 -0.382,0.403 -0.557,0.605 h 17.713 1.261 v 1.256 z"
   id="path12"
   inkscape:connector-curvature="0" />
	<polygon
   points="178.685,205.515 173.41,180.979 181.107,204.871 202.646,271.697 225.603,265.546 226.818,265.221 227.142,266.436 233.293,289.391 301.938,274.627 326.479,269.351 316.665,272.511 316.672,272.511 295.787,279.242 227.823,301.144 226.567,301.549 226.224,300.274 225.21,296.485 224.379,293.385 219.997,277.034 181.091,287.459 191.517,326.363 206.556,322.333 206.552,322.321 207.863,321.969 214.752,320.124 216.027,319.781 216.305,321.079 217.515,326.699 217.52,326.699 217.814,328.069 232.829,397.881 238.104,422.414 230.404,398.523 208.87,331.7 185.91,337.851 184.698,338.175 184.372,336.963 178.22,314.005 109.575,328.769 85.04,334.043 108.931,326.344 175.757,304.811 169.605,281.851 169.281,280.638 170.493,280.312 193.451,274.161 "
   id="polygon14"
   style="clip-rule:evenodd;fill-rule:evenodd" />
	
		<rect
   x="341.32001"
   y="330.74701"
   transform="matrix(-0.7072,-0.707,0.707,-0.7072,355.9752,823.1884)"
   width="14.264"
   height="14.265"
   id="rect16"
   style="clip-rule:evenodd;fill-rule:evenodd" />
</g>
</svg>