<?xml version="1.0" encoding="UTF-8" standalone="no"?>
<svg
   xmlns:dc="http://purl.org/dc/elements/1.1/"
   xmlns:cc="http://creativecommons.org/ns#"
   xmlns:rdf="http://www.w3.org/1999/02/22-rdf-syntax-ns#"
   xmlns:svg="http://www.w3.org/2000/svg"
   xmlns="http://www.w3.org/2000/svg"
   xmlns:sodipodi="http://sodipodi.sourceforge.net/DTD/sodipodi-0.dtd"
   xmlns:inkscape="http://www.inkscape.org/namespaces/inkscape"
   aria-hidden="true"
   data-prefix="fas"
   data-icon="cloud"
   class="svg-inline--fa fa-cloud fa-w-20"
   role="img"
   viewBox="0 0 640 640"
   version="1.1"
   id="svg819"
   sodipodi:docname="cloud-offline.svg"
   inkscape:version="0.92.3 (2405546, 2018-03-11)"
   width="640"
   height="640">
  <metadata
     id="metadata825">
    <rdf:RDF>
      <cc:Work
         rdf:about="">
        <dc:format>image/svg+xml</dc:format>
        <dc:type
           rdf:resource="http://purl.org/dc/dcmitype/StillImage" />
        <dc:title />
      </cc:Work>
    </rdf:RDF>
  </metadata>
  <defs
     id="defs823" />
  <sodipodi:namedview
     pagecolor="#ffffff"
     bordercolor="#666666"
     borderopacity="1"
     objecttolerance="10"
     gridtolerance="10"
     guidetolerance="10"
     inkscape:pageopacity="0"
     inkscape:pageshadow="2"
     inkscape:window-width="1366"
     inkscape:window-height="715"
     id="namedview821"
     showgrid="false"
     inkscape:zoom="1.0778504"
     inkscape:cx="95.106196"
     inkscape:cy="256"
     inkscape:window-x="-8"
     inkscape:window-y="-8"
     inkscape:window-maximized="1"
     inkscape:current-layer="svg819" />
  <path
     d="m 537.6,290.6 c 4.1,-10.7 6.4,-22.4 6.4,-34.6 0,-53 -43,-96 -96,-96 -19.7,0 -38.1,6 -53.3,16.2 C 367,128.2 315.3,96 256,96 167.6,96 96,167.6 96,256 c 0,2.7 0.1,5.4 0.2,8.1 C 40.2,283.8 0,337.2 0,400 0,479.5 64.5,544 144,544 h 368 c 70.7,0 128,-57.3 128,-128 0,-61.9 -44,-113.6 -102.4,-125.4 z"
     id="path817"
     style="fill:#ababab;fill-opacity:1"
     inkscape:export-filename="D:\Documents\GitHub\HAM-desktop-application\ui\cloud-online.png"
     inkscape:export-xdpi="4.5"
     inkscape:export-ydpi="4.5"
     inkscape:connector-curvature="0" />
</svg>
