<?xml version="1.0" encoding="UTF-8" standalone="no"?>
<svg
   xmlns:dc="http://purl.org/dc/elements/1.1/"
   xmlns:cc="http://creativecommons.org/ns#"
   xmlns:rdf="http://www.w3.org/1999/02/22-rdf-syntax-ns#"
   xmlns:svg="http://www.w3.org/2000/svg"
   xmlns="http://www.w3.org/2000/svg"
   xmlns:sodipodi="http://sodipodi.sourceforge.net/DTD/sodipodi-0.dtd"
   xmlns:inkscape="http://www.inkscape.org/namespaces/inkscape"
   aria-hidden="true"
   data-prefix="fas"
   data-icon="play"
   class="svg-inline--fa fa-play fa-w-14"
   role="img"
   viewBox="0 0 512 512"
   version="1.1"
   id="svg4"
   sodipodi:docname="play-solid.svg"
   width="512"
   height="512"
   inkscape:version="0.92.3 (2405546, 2018-03-11)">
  <metadata
     id="metadata10">
    <rdf:RDF>
      <cc:Work
         rdf:about="">
        <dc:format>image/svg+xml</dc:format>
        <dc:type
           rdf:resource="http://purl.org/dc/dcmitype/StillImage" />
        <dc:title></dc:title>
      </cc:Work>
    </rdf:RDF>
  </metadata>
  <defs
     id="defs8" />
  <sodipodi:namedview
     pagecolor="#ffffff"
     bordercolor="#666666"
     borderopacity="1"
     objecttolerance="10"
     gridtolerance="10"
     guidetolerance="10"
     inkscape:pageopacity="0"
     inkscape:pageshadow="2"
     inkscape:window-width="1366"
     inkscape:window-height="715"
     id="namedview6"
     showgrid="false"
     inkscape:zoom="1.019104"
     inkscape:cx="224"
     inkscape:cy="256"
     inkscape:window-x="-8"
     inkscape:window-y="-8"
     inkscape:window-maximized="1"
     inkscape:current-layer="svg4" />
  <circle
     style="fill:#f48fb1;fill-opacity:1;stroke-width:1.60207045"
     id="path817"
     cx="256"
     cy="256.98126"
     r="256" />
  <rect
     style="fill:#ffffff;fill-opacity:1;stroke-width:0.93484193"
     id="rect834"
     width="332.64514"
     height="304.18881"
     x="115.3691"
     y="115.83578"
     ry="3.7702706" />
  <path
     id="path823"
     d="M 460.58167,393.26117 461,162.4802 c 5.11134,-55.02685 1.7151,-53.84063 -45.75551,-54.74033 l -179.6808,-3.40545 c 4.10534,-19.62508 -140.923809,1.14063 -128.04462,18.37014 l 1.51842,302.51189 c 4.3691,4.62069 205.04736,4.15717 224.36315,2.80882 l 114.61361,-8.00067 c 18.22396,-42.95434 12.56742,-26.76343 12.56742,-26.76343 z M 145.42092,161.22661 c 2.56158,-24.72622 24.6822,-42.69368 49.40843,-40.13206 24.72623,2.56158 42.69367,24.68224 40.13204,49.40846 -2.56158,24.72623 -24.68219,42.69367 -49.40843,40.13205 -24.72623,-2.56158 -42.69367,-24.6822 -40.13204,-49.40845 z m -15.22227,146.93314 3.31775,-32.02471 c 0.58147,-5.60649 5.3919,-9.85945 11.0241,-9.64456 75.16752,2.87199 140.92697,-50.67702 153.49862,-124.6794 0.94324,-5.5558 6.09301,-9.39276 11.69861,-8.81201 l 32.02471,3.31774 c 6.0953,0.6312 10.4562,6.23809 9.49729,12.29097 -16.254,102.53045 -107.40386,176.4722 -210.97811,171.36715 -6.12091,-0.30228 -10.71445,-5.71993 -10.08299,-11.8152 z m -9.9554,96.09466 3.31765,-32.0238 c 0.59571,-5.74639 5.63333,-9.95131 11.39945,-9.59151 127.88894,7.97192 240.72968,-83.666 259.14721,-210.49256 0.83092,-5.71827 5.97929,-9.7873 11.72574,-9.19197 l 32.02378,3.31765 c 6.01976,0.62352 10.36337,6.10591 9.52382,12.09856 -21.83684,155.95508 -160.89301,268.23213 -317.24844,257.68534 -6.03749,-0.40678 -10.51287,-5.78203 -9.88923,-11.80173 z"
     inkscape:connector-curvature="0"
     style="fill:#f48fb1;fill-opacity:1;stroke-width:0.93770534"
     sodipodi:nodetypes="ccscccsccccccccccccccccccccccccccc" />
</svg>
