<?xml version="1.0" encoding="UTF-8" standalone="no"?>
<svg
   xmlns:dc="http://purl.org/dc/elements/1.1/"
   xmlns:cc="http://creativecommons.org/ns#"
   xmlns:rdf="http://www.w3.org/1999/02/22-rdf-syntax-ns#"
   xmlns:svg="http://www.w3.org/2000/svg"
   xmlns="http://www.w3.org/2000/svg"
   xmlns:sodipodi="http://sodipodi.sourceforge.net/DTD/sodipodi-0.dtd"
   xmlns:inkscape="http://www.inkscape.org/namespaces/inkscape"
   aria-hidden="true"
   data-prefix="fas"
   data-icon="file-import"
   class="svg-inline--fa fa-file-import fa-w-16"
   role="img"
   viewBox="0 0 512 512"
   version="1.1"
   id="svg4"
   sodipodi:docname="3.svg"
   inkscape:version="0.92.3 (2405546, 2018-03-11)">
  <metadata
     id="metadata10">
    <rdf:RDF>
      <cc:Work
         rdf:about="">
        <dc:format>image/svg+xml</dc:format>
        <dc:type
           rdf:resource="http://purl.org/dc/dcmitype/StillImage" />
        <dc:title></dc:title>
      </cc:Work>
    </rdf:RDF>
  </metadata>
  <defs
     id="defs8" />
  <sodipodi:namedview
     pagecolor="#ffffff"
     bordercolor="#666666"
     borderopacity="1"
     objecttolerance="10"
     gridtolerance="10"
     guidetolerance="10"
     inkscape:pageopacity="0"
     inkscape:pageshadow="2"
     inkscape:window-width="1366"
     inkscape:window-height="715"
     id="namedview6"
     showgrid="false"
     showguides="true"
     inkscape:guide-bbox="true"
     inkscape:zoom="0.49394029"
     inkscape:cx="-9.3225083"
     inkscape:cy="271.71913"
     inkscape:window-x="-8"
     inkscape:window-y="-8"
     inkscape:window-maximized="1"
     inkscape:current-layer="svg4">
    <sodipodi:guide
       position="256,424.81858"
       orientation="1,0"
       id="guide821"
       inkscape:locked="false"
       inkscape:label=""
       inkscape:color="rgb(0,0,255)" />
    <sodipodi:guide
       position="306.81342,256"
       orientation="0,1"
       id="guide823"
       inkscape:locked="false"
       inkscape:label=""
       inkscape:color="rgb(0,0,255)" />
  </sodipodi:namedview>
  <circle
     style="fill:#4db6ac;fill-opacity:1;stroke-width:1.60207045"
     id="path817"
     cx="256"
     cy="257.81659"
     r="256" />
  <g
     aria-label="3"
     transform="translate(144.25637,32.72889)"
     style="font-style:normal;font-weight:normal;font-size:40px;line-height:1.25;font-family:sans-serif;letter-spacing:0px;word-spacing:0px;fill:#ffffff;fill-opacity:1;stroke:none"
     id="flowRoot816">
    <path
       d="m 78.265625,205.49767 h 33.593755 q 25.58593,0 36.13281,-12.69531 10.74218,-12.89063 10.74218,-35.74219 0,-24.41406 -12.10937,-37.10937 -12.10938,-12.69532 -35.74219,-12.69532 -22.460935,0 -36.13281,13.28125 -13.476563,13.08594 -13.476563,34.96094 H 24.359375 L 23.96875,154.3258 Q 22.992187,122.09923 47.210937,99.638297 71.625,76.982047 110.88281,76.982047 q 39.45313,0 62.89063,21.09375 23.4375,20.898433 23.4375,59.765623 0,17.57813 -10.74219,35.15625 -10.54688,17.38281 -31.83594,26.5625 25.58594,8.39844 36.13281,26.36719 10.74219,17.96875 10.74219,40.23437 0,38.86719 -25.58594,61.13282 -25.39062,22.26562 -65.03906,22.26562 -38.867185,0 -64.453123,-20.89844 -25.390625,-21.09375 -24.414062,-57.03125 l 0.585937,-1.17187 h 36.71875 q 0,22.46094 13.671875,35.74219 13.867188,13.28125 37.890623,13.28125 24.41406,0 38.28125,-13.28125 13.86719,-13.28125 13.86719,-39.25782 0,-26.36718 -12.30469,-38.86718 -12.30469,-12.5 -38.86718,-12.5 H 78.265625 Z"
       style="font-style:normal;font-variant:normal;font-weight:normal;font-stretch:normal;font-size:400px;font-family:Roboto;-inkscape-font-specification:Roboto;fill:#ffffff;fill-opacity:1"
       id="path1973" />
  </g>
</svg>
