<?xml version="1.0" encoding="UTF-8" standalone="no"?>
<svg
   xmlns:dc="http://purl.org/dc/elements/1.1/"
   xmlns:cc="http://creativecommons.org/ns#"
   xmlns:rdf="http://www.w3.org/1999/02/22-rdf-syntax-ns#"
   xmlns:svg="http://www.w3.org/2000/svg"
   xmlns="http://www.w3.org/2000/svg"
   xmlns:sodipodi="http://sodipodi.sourceforge.net/DTD/sodipodi-0.dtd"
   xmlns:inkscape="http://www.inkscape.org/namespaces/inkscape"
   aria-hidden="true"
   data-prefix="fas"
   data-icon="key"
   class="svg-inline--fa fa-key fa-w-16"
   role="img"
   viewBox="0 0 512 512"
   version="1.1"
   id="svg4"
   sodipodi:docname="key-solid-disabled.svg"
   inkscape:version="0.92.3 (2405546, 2018-03-11)">
  <metadata
     id="metadata10">
    <rdf:RDF>
      <cc:Work
         rdf:about="">
        <dc:format>image/svg+xml</dc:format>
        <dc:type
           rdf:resource="http://purl.org/dc/dcmitype/StillImage" />
        <dc:title></dc:title>
      </cc:Work>
    </rdf:RDF>
  </metadata>
  <defs
     id="defs8" />
  <sodipodi:namedview
     pagecolor="#ffffff"
     bordercolor="#666666"
     borderopacity="1"
     objecttolerance="10"
     gridtolerance="10"
     guidetolerance="10"
     inkscape:pageopacity="0"
     inkscape:pageshadow="2"
     inkscape:window-width="1366"
     inkscape:window-height="715"
     id="namedview6"
     showgrid="false"
     inkscape:zoom="2.2531752"
     inkscape:cx="183.87956"
     inkscape:cy="256"
     inkscape:window-x="-8"
     inkscape:window-y="-8"
     inkscape:window-maximized="1"
     inkscape:current-layer="svg4" />
  <circle
     style="fill:#868686;fill-opacity:1;stroke-width:1.60207045"
     id="path817"
     cx="256"
     cy="256"
     r="256" />
  <path
     d="m 431,201.31318 c 0,66.44668 -53.86582,120.31182 -120.3125,120.31182 -7.66992,0 -15.16895,-0.72598 -22.44033,-2.09795 l -16.41446,18.4666 A 16.405566,16.405566 0 0 1 259.57041,343.5 H 234.125 v 27.34375 c 0,9.06104 -7.34521,16.40625 -16.40625,16.40625 H 190.375 v 27.34375 C 190.375,423.65479 183.02979,431 173.96875,431 H 97.40625 C 88.345215,431 81,423.65479 81,414.59375 v -53.36064 c 0,-4.35108 1.728809,-8.52442 4.80498,-11.60127 L 196.41182,239.025 C 192.49961,227.16191 190.375,214.48604 190.375,201.3125 190.375,134.86582 244.24014,81.00068 310.68682,81 377.32969,80.99932 431,134.66963 431,201.31318 Z M 310.6875,168.5 c 0,18.12207 14.69043,32.8125 32.8125,32.8125 18.12207,0 32.8125,-14.69043 32.8125,-32.8125 0,-18.12207 -14.69043,-32.8125 -32.8125,-32.8125 -18.12207,0 -32.8125,14.69043 -32.8125,32.8125 z"
     id="path2"
     style="fill:#ffffff;fill-opacity:1;stroke-width:0.68359375"
     inkscape:connector-curvature="0" />
</svg>
