<?xml version="1.0" encoding="UTF-8" standalone="no"?>
<svg
   xmlns:dc="http://purl.org/dc/elements/1.1/"
   xmlns:cc="http://creativecommons.org/ns#"
   xmlns:rdf="http://www.w3.org/1999/02/22-rdf-syntax-ns#"
   xmlns:svg="http://www.w3.org/2000/svg"
   xmlns="http://www.w3.org/2000/svg"
   xmlns:sodipodi="http://sodipodi.sourceforge.net/DTD/sodipodi-0.dtd"
   xmlns:inkscape="http://www.inkscape.org/namespaces/inkscape"
   aria-hidden="true"
   data-prefix="fas"
   data-icon="question"
   class="svg-inline--fa fa-question fa-w-12"
   role="img"
   viewBox="0 0 512 512"
   version="1.1"
   id="svg4"
   sodipodi:docname="question-solid.svg"
   width="512"
   height="512"
   inkscape:version="0.92.3 (2405546, 2018-03-11)">
  <metadata
     id="metadata10">
    <rdf:RDF>
      <cc:Work
         rdf:about="">
        <dc:format>image/svg+xml</dc:format>
        <dc:type
           rdf:resource="http://purl.org/dc/dcmitype/StillImage" />
        <dc:title></dc:title>
      </cc:Work>
    </rdf:RDF>
  </metadata>
  <defs
     id="defs8" />
  <sodipodi:namedview
     pagecolor="#ffffff"
     bordercolor="#666666"
     borderopacity="1"
     objecttolerance="10"
     gridtolerance="10"
     guidetolerance="10"
     inkscape:pageopacity="0"
     inkscape:pageshadow="2"
     inkscape:window-width="1366"
     inkscape:window-height="715"
     id="namedview6"
     showgrid="false"
     inkscape:zoom="1.019104"
     inkscape:cx="192"
     inkscape:cy="256"
     inkscape:window-x="-8"
     inkscape:window-y="-8"
     inkscape:window-maximized="1"
     inkscape:current-layer="svg4" />
  <circle
     style="fill:#fb8c00;fill-opacity:1;stroke-width:1.60207045"
     id="path817"
     cx="256"
     cy="256"
     r="256" />
  <path
     d="m 256.3219,81 c -54.56377,0 -89.90489,22.35557 -117.65127,62.2248 -5.0333,7.23243 -3.48155,17.14864 3.53965,22.47247 l 29.48886,22.35966 c 7.09092,5.37647 17.18008,4.11934 22.73155,-2.83554 17.12333,-21.45186 29.82519,-33.80303 56.57216,-33.80303 21.03008,0 47.04219,13.53447 47.04219,33.92744 0,15.41641 -12.72646,23.33379 -33.49131,34.97539 -24.21494,13.57617 -56.25908,30.47188 -56.25908,72.73779 V 299.75 c 0,9.06104 7.34521,16.40625 16.40625,16.40625 h 49.54072 c 9.06104,0 16.40625,-7.34521 16.40625,-16.40625 v -3.94639 c 0,-29.29882 85.63242,-30.51904 85.63242,-109.80361 C 376.28098,126.29219 314.34602,81 256.3219,81 Z m -6.8503,255.29424 c -26.11054,0 -47.35322,21.24267 -47.35322,47.35322 0,26.10986 21.24268,47.35254 47.35322,47.35254 26.11055,0 47.35323,-21.24268 47.35323,-47.35322 0,-26.11055 -21.24268,-47.35254 -47.35323,-47.35254 z"
     id="path2"
     inkscape:connector-curvature="0"
     style="fill:#ffffff;fill-opacity:1;stroke-width:0.68359375" />
</svg>
