<?xml version="1.0" encoding="UTF-8" standalone="no"?>
<svg
   xmlns:dc="http://purl.org/dc/elements/1.1/"
   xmlns:cc="http://creativecommons.org/ns#"
   xmlns:rdf="http://www.w3.org/1999/02/22-rdf-syntax-ns#"
   xmlns:svg="http://www.w3.org/2000/svg"
   xmlns="http://www.w3.org/2000/svg"
   xmlns:sodipodi="http://sodipodi.sourceforge.net/DTD/sodipodi-0.dtd"
   xmlns:inkscape="http://www.inkscape.org/namespaces/inkscape"
   aria-hidden="true"
   data-prefix="fas"
   data-icon="signature"
   class="svg-inline--fa fa-signature fa-w-16"
   role="img"
   viewBox="0 0 512 512"
   version="1.1"
   id="svg4"
   sodipodi:docname="signature-solid.svg"
   inkscape:version="0.92.3 (2405546, 2018-03-11)">
  <metadata
     id="metadata10">
    <rdf:RDF>
      <cc:Work
         rdf:about="">
        <dc:format>image/svg+xml</dc:format>
        <dc:type
           rdf:resource="http://purl.org/dc/dcmitype/StillImage" />
        <dc:title></dc:title>
      </cc:Work>
    </rdf:RDF>
  </metadata>
  <defs
     id="defs8" />
  <sodipodi:namedview
     pagecolor="#ffffff"
     bordercolor="#666666"
     borderopacity="1"
     objecttolerance="10"
     gridtolerance="10"
     guidetolerance="10"
     inkscape:pageopacity="0"
     inkscape:pageshadow="2"
     inkscape:window-width="1366"
     inkscape:window-height="715"
     id="namedview6"
     showgrid="false"
     inkscape:zoom="1.019104"
     inkscape:cx="256"
     inkscape:cy="256"
     inkscape:window-x="-8"
     inkscape:window-y="-8"
     inkscape:window-maximized="1"
     inkscape:current-layer="svg4" />
  <circle
     style="fill:#9575cd;fill-opacity:1;stroke-width:1.60207045"
     id="path817"
     cx="256"
     cy="256"
     r="256" />
  <g
     id="g818"
     transform="translate(81,-60.756595)">
    <path
       style="fill:#fffbf5;stroke-width:0.68359375;fill-opacity:1"
       inkscape:connector-curvature="0"
       id="path2"
       d="m 339.0625,360.50316 h -62.79492 c -6.33692,0 -13.48047,-7.73144 -17.62305,-19.49609 -10.41113,-29.64062 -32.88769,-48.05664 -58.65234,-48.05664 -21.08203,0 -39.96973,12.33887 -52.02832,33.65332 L 133.16406,214.5559 c -4.07422,-17.37695 -17.40429,-29.05274 -33.167966,-29.05274 -15.756836,0 -29.086914,11.67579 -33.154297,29.05274 L 38.390625,336.03051 c -3.732422,15.89355 -12.584961,24.47265 -19.024414,24.47265 H 10.9375 C 4.8945312,360.50316 0,365.3977 0,371.44066 v 21.875 c 0,6.04297 4.8945312,10.9375 10.9375,10.9375 h 8.428711 c 28.69043,0 53.450195,-23.39941 61.619141,-58.24218 L 97.282227,276.4348 117.27734,428.26781 c 1.35352,10.28809 9.44727,18.76465 19.78321,19.65332 0.67675,0.0615 1.33984,0.0889 2.00293,0.0889 9.625,0 18.21093,-6.33691 20.97949,-15.68848 l 22.5791,-76.79492 c 4.01953,-11.42969 10.82813,-18.8125 17.37012,-18.8125 6.54883,0 13.36426,7.38281 17.62304,19.4961 10.41114,29.64062 32.8877,48.05664 58.65235,48.05664 h 62.79492 c 6.04297,0 10.9375,-4.89454 10.9375,-10.9375 v -21.875 c 0,-6.05664 -4.89453,-10.95118 -10.9375,-10.95118 z" />
  </g>
</svg>
