<?xml version="1.0" encoding="UTF-8" standalone="no"?>
<svg
   xmlns:dc="http://purl.org/dc/elements/1.1/"
   xmlns:cc="http://creativecommons.org/ns#"
   xmlns:rdf="http://www.w3.org/1999/02/22-rdf-syntax-ns#"
   xmlns:svg="http://www.w3.org/2000/svg"
   xmlns="http://www.w3.org/2000/svg"
   xmlns:sodipodi="http://sodipodi.sourceforge.net/DTD/sodipodi-0.dtd"
   xmlns:inkscape="http://www.inkscape.org/namespaces/inkscape"
   aria-hidden="true"
   data-prefix="fas"
   data-icon="user-alt-slash"
   class="svg-inline--fa fa-user-alt-slash fa-w-20"
   role="img"
   viewBox="0 0 512 512"
   version="1.1"
   id="svg4522"
   sodipodi:docname="user-alt-slash-solid.svg"
   width="512"
   height="512"
   inkscape:version="0.92.3 (2405546, 2018-03-11)">
  <metadata
     id="metadata4528">
    <rdf:RDF>
      <cc:Work
         rdf:about="">
        <dc:format>image/svg+xml</dc:format>
        <dc:type
           rdf:resource="http://purl.org/dc/dcmitype/StillImage" />
        <dc:title></dc:title>
      </cc:Work>
    </rdf:RDF>
  </metadata>
  <defs
     id="defs4526" />
  <sodipodi:namedview
     pagecolor="#ffffff"
     bordercolor="#666666"
     borderopacity="1"
     objecttolerance="10"
     gridtolerance="10"
     guidetolerance="10"
     inkscape:pageopacity="0"
     inkscape:pageshadow="2"
     inkscape:window-width="1366"
     inkscape:window-height="715"
     id="namedview4524"
     showgrid="false"
     inkscape:zoom="0.99146729"
     inkscape:cx="263.13589"
     inkscape:cy="256"
     inkscape:window-x="-8"
     inkscape:window-y="-8"
     inkscape:window-maximized="1"
     inkscape:current-layer="svg4522" />
  <circle
     style="fill:#868686;fill-opacity:1;stroke-width:1.60207045"
     id="path817"
     cx="256"
     cy="256"
     r="256" />
  <path
     d="M 427.59147,366.52286 294.04529,263.2734 c 24.17175,-13.45306 40.68729,-38.9373 40.68729,-68.52309 0,-43.47633 -35.27326,-78.74959 -78.74959,-78.74959 -36.69513,0 -67.26528,25.21081 -76.01523,59.17157 l -74.10118,-57.3122 c -3.82811,-2.95311 -9.296829,-2.29687 -12.304629,1.53124 l -10.71869,13.78118 c -2.95311,3.8281 -2.29686,9.29682 1.53124,12.24993 L 406.15408,394.08522 c 3.82811,2.95311 9.29683,2.29686 12.30463,-1.53124 l 10.71869,-13.83587 c 2.95311,-3.71873 2.24218,-9.24214 -1.58593,-12.19525 z M 189.48333,290.99981 c -40.57791,0 -73.49962,32.92171 -73.49962,73.49962 v 5.24998 c 0,14.49212 11.75775,26.24986 26.24987,26.24986 H 351.24812 L 215.40507,290.99981 Z"
     id="path4520"
     inkscape:connector-curvature="0"
     style="fill:#ffffff;stroke-width:0.54687214" />
</svg>
