<?xml version="1.0" encoding="UTF-8" standalone="no"?>
<svg
   xmlns:dc="http://purl.org/dc/elements/1.1/"
   xmlns:cc="http://creativecommons.org/ns#"
   xmlns:rdf="http://www.w3.org/1999/02/22-rdf-syntax-ns#"
   xmlns:svg="http://www.w3.org/2000/svg"
   xmlns="http://www.w3.org/2000/svg"
   xmlns:sodipodi="http://sodipodi.sourceforge.net/DTD/sodipodi-0.dtd"
   xmlns:inkscape="http://www.inkscape.org/namespaces/inkscape"
   aria-hidden="true"
   data-prefix="fas"
   data-icon="user-check"
   class="svg-inline--fa fa-user-check fa-w-20"
   role="img"
   viewBox="0 0 512 512"
   version="1.1"
   id="svg4"
   sodipodi:docname="user-check-solid.svg"
   width="512"
   height="512"
   inkscape:version="0.92.3 (2405546, 2018-03-11)">
  <metadata
     id="metadata10">
    <rdf:RDF>
      <cc:Work
         rdf:about="">
        <dc:format>image/svg+xml</dc:format>
        <dc:type
           rdf:resource="http://purl.org/dc/dcmitype/StillImage" />
        <dc:title></dc:title>
      </cc:Work>
    </rdf:RDF>
  </metadata>
  <defs
     id="defs8" />
  <sodipodi:namedview
     pagecolor="#ffffff"
     bordercolor="#666666"
     borderopacity="1"
     objecttolerance="10"
     gridtolerance="10"
     guidetolerance="10"
     inkscape:pageopacity="0"
     inkscape:pageshadow="2"
     inkscape:window-width="1366"
     inkscape:window-height="715"
     id="namedview6"
     showgrid="false"
     inkscape:zoom="0.99146729"
     inkscape:cx="345.80237"
     inkscape:cy="256"
     inkscape:window-x="-8"
     inkscape:window-y="-8"
     inkscape:window-maximized="1"
     inkscape:current-layer="svg4" />
  <circle
     style="fill:#4caf50;fill-opacity:1;stroke-width:1.60207045"
     id="path817"
     cx="256"
     cy="256"
     r="256" />
  <path
     d="m 203.49994,256 c 38.66403,0 69.99995,-31.33592 69.99995,-69.99995 0,-38.66405 -31.33592,-69.99996 -69.99995,-69.99996 -38.66405,0 -69.99997,31.33591 -69.99997,69.99996 0,38.66403 31.33592,69.99995 69.99997,69.99995 z m 48.99996,17.49998 h -9.1328 c -12.14062,5.57813 -25.64843,8.75 -39.86716,8.75 -14.21875,0 -27.67187,-3.17187 -39.86717,-8.75 h -9.13281 c -40.5781,0 -73.499952,32.92186 -73.499952,73.49996 v 22.74998 c 0,14.49218 11.757805,26.24999 26.249982,26.24999 h 192.49988 c 14.49218,0 26.24998,-11.75781 26.24998,-26.24999 v -22.74998 c 0,-40.5781 -32.92185,-73.49996 -73.49995,-73.49996 z M 429.14042,203.28128 413.9373,187.9141 c -2.51563,-2.5703 -6.61718,-2.5703 -9.18749,-0.0547 l -57.31247,56.87497 -24.8828,-25.04686 c -2.51562,-2.57031 -6.61718,-2.57031 -9.18749,-0.0547 l -15.36718,15.25781 c -2.57031,2.51562 -2.57031,6.61718 -0.0547,9.18749 l 44.67966,45.00779 c 2.51561,2.57031 6.61718,2.57031 9.18749,0.0547 l 77.27339,-76.67182 c 2.51562,-2.57032 2.57031,-6.67187 0.0547,-9.1875 z"
     id="path2"
     inkscape:connector-curvature="0"
     style="fill:#fcfeff;stroke-width:0.54687464;fill-opacity:1" />
</svg>
